PathFileType	4	(X/Y/Z)	P:\Projects\LMB_grand_challenge_database\project_only\opensim\experimental_data\SixthCompetition/DM_ngait_og1_new.trc
DataRate	CameraRate	NumFrames	NumMarkers	Units	OrigDataRate	OrigDataStartFrame	OrigNumFrames
120	120	6	68	mm	120	333	381
Frame#	Time	Sternum			Neck			R_Shoulder			L_Shoulder			Xiphoid			Thoracic			R_Asis			L_Asis			R_Psis			L_Psis			Lumbar			R_Elbow			R_ElbowMedial			R_ShoulderAnterior			R_ShoulderPosterior			R_Wrist			R_Radius			R_Ulna			L_Elbow			L_ElbowMedial			L_ShoulderAnterior			L_ShoulderPosterior			L_Wrist			L_Ulna			L_Radius			L_Thigh_Superior			L_Thigh_Inferior			L_Thigh_Lateral			L_Knee_Lateral			L_Knee_Medial			L_Patella			L_Shank_Superior			L_Shank_Inferior			L_Shank_Lateral			L_Ankle_Lateral			L_Ankle_Medial			R_Thigh_Superior			R_Thigh_Inferior			R_Thigh_Lateral			R_Knee_Lateral			R_Knee_Medial			R_Patella			R_Shank_Superior			R_Shank_Inferior			R_Shank_Lateral			R_Ankle_Lateral			RankleMedial			R_Heel			R_Toe			R_Midfoot_Medial			R_Midfoot_Lateral			R_Hindfoot			R_Midfoot_Superior			R_ToeMedial			R_ToeLateral			L_Heel			L_Toe			L_Midfoot_Medial			L_Midfoot_Lateral			L_Hindfoot			L_Midfoot_Superior			L_ToeMedial			L_ToeLateral			Oglobal			Sacral			Xglobal			Yglobal			Zglobal			
		X1	Y1	Z1	X2	Y2	Z2	X3	Y3	Z3	X4	Y4	Z4	X5	Y5	Z5	X6	Y6	Z6	X7	Y7	Z7	X8	Y8	Z8	X9	Y9	Z9	X10	Y10	Z10	X11	Y11	Z11	X12	Y12	Z12	X13	Y13	Z13	X14	Y14	Z14	X15	Y15	Z15	X16	Y16	Z16	X17	Y17	Z17	X18	Y18	Z18	X19	Y19	Z19	X20	Y20	Z20	X21	Y21	Z21	X22	Y22	Z22	X23	Y23	Z23	X24	Y24	Z24	X25	Y25	Z25	X26	Y26	Z26	X27	Y27	Z27	X28	Y28	Z28	X29	Y29	Z29	X30	Y30	Z30	X31	Y31	Z31	X32	Y32	Z32	X33	Y33	Z33	X34	Y34	Z34	X35	Y35	Z35	X36	Y36	Z36	X37	Y37	Z37	X38	Y38	Z38	X39	Y39	Z39	X40	Y40	Z40	X41	Y41	Z41	X42	Y42	Z42	X43	Y43	Z43	X44	Y44	Z44	X45	Y45	Z45	X46	Y46	Z46	X47	Y47	Z47	X48	Y48	Z48	X49	Y49	Z49	X50	Y50	Z50	X51	Y51	Z51	X52	Y52	Z52	X53	Y53	Z53	X54	Y54	Z54	X55	Y55	Z55	X56	Y56	Z56	X57	Y57	Z57	X58	Y58	Z58	X59	Y59	Z59	X60	Y60	Z60	X61	Y61	Z61	X62	Y62	Z62	X63	Y63	Z63	X64	Y64	Z64	X65	Y65	Z65	X66	Y66	Z66	X67	Y67	Z67	X68	Y68	Z68	

334	3.525	1364.38	1356.8	77.89100000000001	1209.38	1447.59	83.77670000000001	1306.18	1394.89	252.709	1273.13	1400.83	-89.4045	1380.07	1194.51	86.7186	1113.12	1259.56	93.9512	1297.2	963.253	229.097	1304.22	975.775	-46.1253	1097.67	1009.11	119.231	1097.3	1006.86	41.1063	1099.07	1057.47	84.4776	1228.25	1094.97	369.207	-0	0	0	-0	0	0	-0	0	0	1259.93	813.314	378.479	1267.22	822.848	334.475	1214	827.153	383.498	1349.48	1076.74	-179.552	-0	0	0	-0	0	0	-0	0	0	1535.34	884.5170000000001	-136.162	1491.53	876.605	-159.94	1514.8	900.997	-93.01349999999999	-0	0	0	1180.13	580.718	-16.4654	1249.29	659.914	0.207243	-0	0	0	-0	0	0	1186.38	482.089	49.8397	1099.77	437.772	-15.0089	993.034	186.486	-3.96525	1081.33	294.589	59.6909	-0	0	0	-0	0	0	1232.8	781.41	263.03	1334.25	587.886	228.619	1347.07	728.116	249.349	-0	0	0	-0	0	0	1449.17	538.849	173.908	1382.85	391.562	237.491	1487.57	209.15	228.143	1493.83	354.854	169.445	-0	0	0	-0	0	0	1490.33	60.7834	163.928	1757.8	183.949	212.037	1705.7	138.8	145.35	1685.39	114.995	258.369	1589.39	66.01909999999999	228.932	1607.75	182.165	197.237	1737.71	164.326	162.721	1724.16	146.629	252.452	892.332	71.83540000000001	56.4914	1190.15	51.3245	36.4233	1112.55	35.1586	92.9435	1093.76	31.4893	-19.9275	986.172	30.9108	-4.83523	1059.72	121.795	39.3274	1154.62	36.0062	82.13809999999999	1148.12	34.5737	-13.4814	-0	0	0	1097.48	1007.98	80.16840000000001	-200	0	0	-0	0	200	-0	200	0	
335	3.533333	1373.27	1355.34	78.9584	1218.32	1446	84.5727	1315.27	1392.93	253.982	1282.54	1399.98	-88.51439999999999	1389.09	1193.17	87.3242	1122.05	1257.97	94.3998	1306.13	961.579	229.688	1313.75	974.687	-45.4826	1106.73	1007.16	119.457	1106.57	1005	41.416	1108.08	1055.57	84.8122	1236.66	1093.2	370.108	-0	0	0	-0	0	0	-0	0	0	1268.8	811.654	378.976	1276.37	821.289	335.147	1222.85	825.143	384.186	1360.7	1076.18	-178.128	-0	0	0	-0	0	0	-0	0	0	1546.38	883.614	-134.334	1502.59	875.8200000000001	-158.599	1525.56	899.955	-91.31910000000001	-0	0	0	1186.5	579.773	-16.0715	1256.16	658.607	0.67219	-0	0	0	-0	0	0	1191.74	480.943	49.8395	1104.37	437.285	-14.8265	995.29	188.054	-4.3998	1084.26	294.599	59.8293	-0	0	0	-0	0	0	1242.78	780.3	262.742	1345.36	587.285	227.713	1358.02	727.653	248.599	-0	0	0	-0	0	0	1460.49	539.333	172.54	1395.27	391.021	236.09	1500.79	209.142	225.607	1506.43	355.935	167.719	-0	0	0	-0	0	0	1504.27	60.8292	160.459	1770.96	185.873	209.591	1719.01	140.734	142.594	1698.84	115.907	255.418	1603.3	66.3258	225.606	1620.68	182.895	194.751	1750.79	166.343	160.16	1737.52	148.119	249.885	892.867	73.5046	56.3423	1190.24	51.0669	36.3927	1112.79	35.6693	93.3463	1094.12	31.2442	-19.5155	986.135	31.1245	-4.70134	1060.67	122.249	38.9868	1154.74	35.7618	82.1431	1148.2	34.4264	-13.5139	-0	0	0	1106.65	1006.08	80.43640000000001	-200	0	0	-0	0	200	-0	200	0	
336	3.541667	1382.39	1353.96	80.16549999999999	1227.24	1444.54	85.4345	1323.82	1391.03	254.831	1292.19	1398.7	-87.1623	1398.11	1191.66	88.0771	1131.05	1256.59	94.67659999999999	1315.24	960.551	230.314	1323.19	973.044	-44.8966	1115.84	1005.19	119.702	1115.87	1003.03	41.7624	1117.11	1053.62	84.9413	1245.25	1091.27	370.978	-0	0	0	-0	0	0	-0	0	0	1278.03	809.8150000000001	379.525	1285.54	819.7569999999999	335.874	1232.04	823.345	384.914	1371.75	1075.26	-176.572	-0	0	0	-0	0	0	-0	0	0	1557.25	882.475	-132.762	1513.42	875.0599999999999	-157.41	1536.13	898.754	-89.59610000000001	-0	0	0	1193.05	578.867	-15.8307	1263.19	657.5170000000001	0.973826	-0	0	0	-0	0	0	1197.26	479.892	49.3554	1109.44	437.043	-14.7862	997.236	189.312	-4.62512	1087.38	294.759	59.7954	-0	0	0	-0	0	0	1253.41	779.198	262.615	1357.6	586.876	226.918	1369.52	727.248	247.858	-0	0	0	-0	0	0	1472.17	539.837	171.108	1407.82	390.993	234.482	1512.94	208.731	222.97	1518.06	354.989	165.027	-0	0	0	-0	0	0	1516.23	60.7302	156.671	1782.96	185.606	207.151	1731.01	140.721	139.769	1710.59	115.212	252.394	1615.31	65.88330000000001	222.187	1632.52	182.529	191.949	1762.66	166.26	157.589	1749.09	147.36	247.063	893.54	75.4349	56.1041	1190.47	50.6777	36.3784	1113.13	35.7794	93.19370000000001	1094.4	31.1627	-19.6507	986.385	31.8975	-4.9151	1061.72	122.631	38.5732	1154.98	35.3379	82.1747	1148.34	34.1972	-13.5424	-0	0	0	1115.85	1004.11	80.7324	-200	0	0	-0	0	200	-0	200	0	
337	3.55	1391.58	1352.5	81.46380000000001	1236.2	1442.94	86.5363	1332.56	1389.05	255.996	1301.94	1397.74	-86.21129999999999	1407.5	1190.23	88.9915	1139.92	1255.21	94.9948	1324.56	959.235	231.088	1332.67	971.6079999999999	-44.3035	1125.13	1003.29	120.297	1125.21	1001.14	42.1892	1126.29	1051.73	85.44710000000001	1253.79	1089.32	372.058	-0	0	0	-0	0	0	-0	0	0	1287.27	808.1079999999999	380.094	1294.32	817.73	336.42	1241.1	821.186	385.462	1382.74	1074.43	-174.965	-0	0	0	-0	0	0	-0	0	0	1567.86	881.239	-131.281	1524.18	873.883	-155.935	1546.65	897.23	-88.1331	-0	0	0	1199.86	577.992	-15.4935	1270.46	656.236	1.56974	-0	0	0	-0	0	0	1203.24	478.304	49.3829	1114.78	436.98	-14.92	999.773	190.886	-5.01227	1090.82	294.692	59.379	-0	0	0	-0	0	0	1264.7	778.213	262.593	1369.79	586.39	225.831	1381.37	727.171	247.066	-0	0	0	-0	0	0	1484.37	539.904	169.607	1420.25	390.351	232.692	1524	207.859	220.043	1529.69	354.299	162.491	-0	0	0	-0	0	0	1526.32	60.1141	152.831	1793.48	183.283	204.406	1741.61	138.927	136.822	1720.69	113.227	249.312	1625.23	64.5646	218.654	1643.22	181.175	188.814	1773.34	164.238	154.687	1759.62	145.162	244.17	894.317	77.4363	55.839	1190.69	50.2776	36.5818	1113.5	35.7304	93.0667	1094.73	30.9517	-19.7644	986.793	32.7302	-5.10759	1062.96	122.918	38.1751	1155.3	34.9899	82.2122	1148.56	33.8052	-13.5129	-0	0	0	1125.17	1002.22	81.24299999999999	-200	0	0	-0	0	200	-0	200	0	
338	3.558333	1400.79	1351.1	82.82689999999999	1245.64	1441.15	87.7989	1341.26	1387.13	257.261	1311.89	1396.62	-84.87439999999999	1416.82	1188.96	89.9127	1149.05	1253.63	95.4068	1334.2	958.236	231.479	1341.59	970.056	-44.0998	1134.32	1001.56	121.192	1134.24	999.384	42.7239	1135.36	1049.98	86.0712	1262.43	1087.35	373.088	-0	0	0	-0	0	0	-0	0	0	1296.35	806.196	380.589	1303.38	815.9690000000001	337.026	1250	819.224	386.417	1393.66	1073.64	-173.477	-0	0	0	-0	0	0	-0	0	0	1577.97	879.188	-129.463	1534.48	872.552	-154.664	1556.76	895.443	-86.5025	-0	0	0	1207.05	577.188	-15.1943	1277.8	654.982	2.09998	-0	0	0	-0	0	0	1209.3	476.203	49.9026	1120.38	436.464	-14.6469	1002.21	192.096	-5.31488	1094.44	294.658	59.3854	-0	0	0	-0	0	0	1276.51	777.317	262.737	1382.44	586.0549999999999	224.879	1393.69	726.881	246.276	-0	0	0	-0	0	0	1496.68	540.5839999999999	168.278	1432.14	390.148	230.845	1534.11	206.636	216.951	1540.91	353.262	159.942	-0	0	0	-0	0	0	1534.95	59.1045	149.114	1802.99	179.801	201.277	1751.03	135.844	133.645	1729.54	110.451	246.099	1633.57	62.5746	215.155	1652.9	179.072	185.318	1782.72	160.762	151.383	1768.75	142.068	240.962	895.091	79.8643	55.539	1190.97	49.5005	36.4719	1113.68	35.257	92.8891	1094.85	30.448	-19.9308	987.249	33.9019	-5.25597	1064.05	122.914	37.8023	1155.54	34.7012	82.2034	1148.75	33.3721	-13.4703	-0	0	0	1134.28	1000.47	81.958	-200	0	0	-0	0	200	-0	200	0	
339	3.566667	1410.01	1349.86	84.15089999999999	1253.9	1439.69	89.5553	1350	1385.48	258.638	1321.86	1395.78	-83.496	1426.17	1187.95	90.9212	1158.26	1252.23	95.9325	1343.86	957.276	232.401	1351.27	968.611	-43.4286	1143.87	999.795	121.997	1143.81	997.509	43.2929	1144.78	1048.17	86.6771	1270.72	1085.5	373.966	-0	0	0	-0	0	0	-0	0	0	1305.1	804.417	381.287	1311.78	814.212	337.272	1259.07	817.354	387.163	1404.57	1072.54	-171.397	-0	0	0	-0	0	0	-0	0	0	1587.91	877.417	-128.026	1544.47	871.077	-153.285	1566.83	893.718	-85.0157	-0	0	0	1214.24	576.295	-14.8895	1285.56	653.877	2.6598	-0	0	0	-0	0	0	1215.58	474.112	50.9082	1126.15	436.305	-14.7203	1004.17	193.367	-5.23974	1098.33	294.862	59.3976	-0	0	0	-0	0	0	1288.5	776.597	263.084	1395.16	585.609	223.864	1406.13	726.883	245.535	-0	0	0	-0	0	0	1508.8	540.7670000000001	166.696	1443.52	389.601	229.042	1543.12	205.136	213.975	1551.35	351.758	157.292	-0	0	0	-0	0	0	1542.11	57.556	145.468	1811.28	175.349	197.588	1758.96	132.081	130.15	1737.06	107.138	242.625	1640.52	60.2297	211.523	1661.24	176.44	181.605	1791.12	156.671	147.941	1776.65	138.112	237.409	895.955	82.4867	55.2707	1191.13	49.076	36.3503	1113.8	34.31	92.56	1094.77	29.4292	-20.2238	987.104	34.9493	-5.27098	1064.89	122.435	37.2925	1155.69	34.4411	82.2406	1148.82	33.2609	-13.6478	-0	0	0	1143.84	998.652	82.6447	-200	0	0	-0	0	200	-0	200	0	
